<?xml version="1.0" encoding="UTF-8" standalone="no"?>
<!-- Created with Inkscape (http://www.inkscape.org/) -->

<svg
   version="1.1"
   id="svg1"
   width="650.15875"
   height="650.15875"
   viewBox="0 0 650.15875 650.15875"
   sodipodi:docname="favicon.svg"
   inkscape:version="1.4.3 (0d15f75042, 2025-12-25)"
   inkscape:export-filename="favicon.png"
   inkscape:export-xdpi="96"
   inkscape:export-ydpi="96"
   xmlns:inkscape="http://www.inkscape.org/namespaces/inkscape"
   xmlns:sodipodi="http://sodipodi.sourceforge.net/DTD/sodipodi-0.dtd"
   xmlns="http://www.w3.org/2000/svg"
   xmlns:svg="http://www.w3.org/2000/svg">
  <defs
     id="defs1" />
  <sodipodi:namedview
     id="namedview1"
     pagecolor="#ffffff"
     bordercolor="#000000"
     borderopacity="0.25"
     inkscape:showpageshadow="2"
     inkscape:pageopacity="0.0"
     inkscape:pagecheckerboard="0"
     inkscape:deskcolor="#d1d1d1"
     showgrid="false"
     inkscape:zoom="1.2996826"
     inkscape:cx="324.69467"
     inkscape:cy="368.16682"
     inkscape:window-width="1920"
     inkscape:window-height="1048"
     inkscape:window-x="0"
     inkscape:window-y="0"
     inkscape:window-maximized="1"
     inkscape:current-layer="g1" />
  <g
     inkscape:groupmode="layer"
     inkscape:label="Image"
     id="g1">
    <path
       style="fill:#000000;stroke:none;stroke-width:32.3156"
       d="M 0,325.07938 V 0.38470932 H 325.07938 650.15875 V 325.07938 649.77404 H 325.07938 0 Z m 191.96995,153.08278 c 24.28576,-4.54954 45.8513,-16.26308 65.07843,-35.34801 7.39297,-7.33829 14.5564,-15.9911 14.5564,-17.58287 0,-1.27532 -3.13394,-4.27798 -10.76888,-10.31775 -3.17222,-2.50943 -8.88515,-7.42428 -12.69541,-10.92186 -3.81026,-3.49759 -10.90949,-9.76234 -15.77606,-13.92168 -4.86657,-4.15933 -9.02143,-7.7595 -9.23302,-8.00038 -0.21159,-0.24088 -4.02022,-3.72362 -8.46361,-7.73942 -15.38547,-13.90491 -21.65742,-20.25203 -36.50264,-36.94012 -3.09891,-3.4836 -11.76133,-14.68794 -15.16895,-19.62017 -6.42808,-9.30406 -16.65622,-27.89075 -18.37341,-33.38835 -0.34443,-1.1027 -1.34693,-3.90922 -2.22778,-6.23671 -3.48706,-9.21399 -6.55511,-23.24133 -7.48225,-34.20946 -0.50961,-6.02854 -0.51308,-6.03619 -5.22927,-11.49472 -16.90679,-19.568 -35.340995,-43.99558 -52.065809,-68.99359 -7.573944,-11.32052 -8.048101,-11.7345 -9.035643,-7.88903 -3.538444,13.7786 -4.936817,38.85713 -3.154832,56.57897 0.783654,7.79346 3.226025,21.86419 4.579469,26.38277 6.930586,23.13831 15.542696,40.42183 28.620236,57.43758 7.565289,9.84351 23.878569,25.89083 34.097799,33.54186 4.65498,3.48515 9.50232,7.19721 10.77186,8.24903 l 2.30825,1.91239 -2.11846,0.0188 c -4.35845,0.0388 -39.94737,-10.67947 -55.010872,-16.56751 -2.644876,-1.03384 -7.145975,-2.77502 -10.002442,-3.86931 -10.954223,-4.19644 -24.93466,-10.42755 -41.333941,-18.42262 -9.451991,-4.60808 -10.804212,-4.57248 -9.488428,0.24976 0.427786,1.56781 1.031638,3.19679 1.341894,3.61997 0.310256,0.42318 1.367853,3.01997 2.350215,5.77064 0.982362,2.75067 2.232697,5.86682 2.778523,6.92477 0.545826,1.05795 2.775304,5.55905 4.954396,10.00244 26.518511,54.07397 73.518815,83.82272 132.520285,83.87841 6.86387,0.006 12.99344,0.33659 13.62127,0.73356 0.8566,0.54162 -1.63981,2.05171 -10.00245,6.05049 -16.83177,8.04849 -20.55973,9.69896 -32.48621,14.38251 -6.03532,2.37008 -11.83891,4.67132 -12.89686,5.11388 -4.05447,1.696 -31.355425,10.5227 -37.701513,12.1893 -6.349119,1.6674 -6.939179,3.35378 -2.109554,6.02909 6.259514,3.46738 20.994537,10.76154 25.576827,12.66108 26.14817,10.83952 52.38291,14.19279 76.17244,9.73621 z m 309.0892,-0.0139 c 11.34733,-1.97599 22.38619,-5.1984 33.3021,-9.72139 4.65409,-1.92842 21.72221,-10.37159 26.34772,-13.03355 4.02402,-2.31582 3.12571,-4.08019 -2.88045,-5.65752 -5.93296,-1.5581 -33.83697,-10.57152 -37.70152,-12.17817 -1.05795,-0.43983 -6.07841,-2.42792 -11.15657,-4.41797 -5.07816,-1.99006 -11.13733,-4.47239 -13.46482,-5.5163 -10.61971,-4.76307 -13.25237,-5.98296 -21.73845,-10.07292 -4.97368,-2.3971 -8.92737,-4.70782 -8.78599,-5.13491 0.15464,-0.46718 6.36274,-0.95653 15.58309,-1.22835 20.50867,-0.6046 31.77987,-2.48435 48.41106,-8.07373 34.23306,-11.50499 63.83417,-38.87197 81.90772,-75.7258 2.17909,-4.44339 4.40857,-8.94449 4.95439,-10.00244 0.54583,-1.05795 1.79617,-4.1741 2.77853,-6.92477 0.98236,-2.75067 2.03996,-5.34746 2.35021,-5.77064 0.31026,-0.42318 0.91411,-2.05216 1.3419,-3.61997 1.33081,-4.87734 -0.0137,-4.86038 -10.25471,0.12944 -17.48812,8.52085 -28.86171,13.55012 -42.68356,18.87417 -4.02022,1.54854 -8.15593,3.15855 -9.19047,3.57779 -12.46317,5.05061 -49.47127,16.06952 -53.83259,16.02828 l -1.99282,-0.0188 2.30826,-1.91239 c 1.26954,-1.05182 6.11687,-4.76388 10.77186,-8.24903 10.21922,-7.65103 26.53251,-23.69835 34.09779,-33.54186 13.0707,-17.00685 21.7768,-34.48124 28.61659,-57.43758 6.40208,-21.48729 7.08145,-60.94846 1.42829,-82.96174 -0.98394,-3.83141 -1.39747,-3.47 -8.98878,7.85585 -9.74556,14.53989 -17.40847,25.28734 -26.94356,37.78908 -8.31554,10.90277 -18.21552,23.18958 -25.17351,31.24272 l -4.72371,5.46719 -0.44629,9.15176 c -0.24546,5.03348 -0.84528,11.05608 -1.33294,13.38357 -2.06456,9.85371 -4.28525,17.71887 -6.7345,23.85198 -13.46522,33.71809 -37.97345,63.43753 -88.27031,107.03935 -10.75502,9.32341 -32.32586,27.87822 -35.51969,30.55334 -3.3301,2.78926 -3.87997,3.6109 -3.46214,5.17326 1.42696,5.33557 21.78168,24.98422 34.73537,33.53043 25.4904,16.81734 55.51272,22.92026 86.3425,17.55167 z M 329.32834,443.04618 c 5.99551,-8.3486 26.93631,-28.09906 56.1504,-52.95865 38.63499,-32.87626 57.13663,-50.61668 74.26881,-71.21312 9.57168,-11.50714 19.91726,-28.26108 25.38813,-41.11428 9.0583,-21.28144 9.75329,-47.14963 1.87335,-69.72686 -4.25505,-12.19134 -9.93069,-21.25507 -18.89665,-30.17706 -23.21483,-23.10094 -60.891,-28.64537 -91.09725,-13.40587 -9.41872,4.75188 -14.72585,8.50106 -22.57284,15.9464 -8.27783,7.85413 -13.629,14.87813 -21.64598,28.41277 -4.11855,6.95312 -6.40461,10.09009 -7.35313,10.09009 -0.93767,0 -2.91496,-2.63672 -6.20267,-8.27125 -13.57129,-23.25875 -25.28193,-35.07174 -44.94276,-45.33561 -10.20876,-5.32943 -27.74308,-9.48547 -40.01928,-9.48547 -5.74835,0 -19.26471,2.06716 -24.61189,3.76407 -33.63491,10.67398 -51.94121,36.97331 -51.93343,74.60898 0.004,21.7286 5.20159,39.14019 18.23817,61.10248 14.41147,24.27851 35.30628,46.61247 77.93683,83.30476 32.02348,27.56274 38.59339,33.45317 49.67779,44.53993 6.37537,6.37672 13.60177,14.27739 16.05867,17.55704 2.52442,3.36978 5.03904,5.96299 5.78227,5.96299 0.72335,0 2.47901,-1.6206 3.90146,-3.60134 z"
       id="path16" />
    <path
       style="fill:#ffffff;stroke:none;stroke-width:32.3156"
       d="m 318.52364,438.8825 c -8.68382,-10.58404 -27.84038,-28.87363 -53.47201,-51.05205 -55.64299,-48.14648 -74.38836,-67.9211 -90.11856,-95.06666 -11.84335,-20.43805 -16.6653,-37.08711 -16.71307,-57.70639 -0.0368,-15.87045 2.54189,-28.3993 8.15555,-39.62506 15.12467,-30.2452 52.30371,-45.45343 89.07144,-36.43502 26.84289,6.58404 45.91709,21.99096 62.999,50.88661 2.69743,4.56293 5.53482,8.63363 6.30533,9.04599 1.58186,0.84659 2.71159,-0.58923 9.8743,-12.54969 7.9199,-13.22482 18.50297,-25.49583 28.57492,-33.13241 9.92221,-7.52307 24.37929,-13.78265 36.77267,-15.92174 6.30266,-1.08783 19.80156,-1.07788 26.66943,0.0197 18.21486,2.91088 35.88641,13.13698 47.02102,27.20993 12.14108,15.34503 18.2717,34.22584 18.2717,56.27236 0,21.15594 -5.30018,37.31699 -19.67071,59.97897 -15.2673,24.07614 -36.04444,45.35525 -86.78591,88.8826 -29.31903,25.15062 -50.20123,44.84901 -56.50653,53.30318 -1.18356,1.58693 -2.72726,2.88532 -3.43043,2.88532 -0.70317,0 -3.86133,-3.14802 -7.01814,-6.9956 z"
       id="path17" />
    <path
       style="fill:#ffffff;stroke:none;stroke-width:32.3156"
       d="m 153.49902,478.53395 c -17.61593,-2.66992 -32.14927,-7.50589 -51.40296,-17.10437 -10.972485,-5.47008 -14.411379,-7.52296 -14.224827,-8.49165 0.272433,-1.41462 0.693627,-1.57266 23.730937,-8.90453 8.69526,-2.76736 21.33296,-7.2447 28.08378,-9.94965 21.62198,-8.6636 46.12865,-20.1912 46.12865,-21.69828 0,-0.4358 -5.92438,-0.97382 -14.23424,-1.29269 -28.35691,-1.0881 -46.39633,-5.30717 -67.12954,-15.70031 C 82.366209,384.3219 63.020549,366.14103 47.799505,342.1521 39.584916,329.20561 26.476367,299.83408 28.161045,298.1494 c 0.769816,-0.76982 4.13825,0.63079 24.544132,10.20552 21.404115,10.04312 46.715371,19.54618 70.017093,26.28779 16.68477,4.8272 18.28974,5.20168 21.09902,4.9228 l 2.53732,-0.25189 -5.66282,-4.18199 c -35.19031,-25.98804 -55.893792,-53.0294 -67.488311,-88.14825 -6.638411,-20.1072 -9.239572,-41.62146 -7.796144,-64.48211 0.747293,-11.83543 2.384688,-23.94627 3.728808,-27.57977 0.594264,-1.60645 0.690052,-1.57192 2.652282,0.95605 1.119663,1.44248 6.091744,8.50874 11.049069,15.70281 15.39425,22.34012 31.486106,43.48787 44.743756,58.80178 5.82246,6.72552 6.70023,8.62876 7.34191,15.91913 2.45839,27.93078 15.72043,57.42993 38.6299,85.92563 14.86686,18.49198 50.633,52.55688 86.00658,81.91561 4.71831,3.91602 9.35966,8.00579 10.31408,9.08838 l 1.73533,1.96833 -2.46909,3.60703 c -3.72767,5.44565 -20.15003,21.53684 -27.54651,26.99098 -21.79458,16.0713 -45.79457,24.06322 -71.65468,23.86077 -5.23544,-0.041 -12.63513,-0.54681 -16.44375,-1.12405 z"
       id="path18" />
    <path
       style="fill:#ffffff;stroke:none;stroke-width:32.3156"
       d="m 467.03712,479.19785 c -16.08152,-1.7222 -34.33013,-7.93291 -48.08867,-16.36642 -14.94132,-9.15851 -38.83669,-31.72556 -38.85276,-36.69297 -0.002,-0.4889 9.77835,-9.30957 21.7332,-19.6015 28.01195,-24.11552 35.41192,-30.78493 49.3222,-44.45284 25.69886,-25.25111 40.25413,-44.14612 51.26149,-66.54541 8.02106,-16.32236 12.98865,-34.75417 13.17461,-48.88327 0.0422,-3.20507 0.30185,-6.57883 0.57706,-7.49724 0.27521,-0.91842 4.90548,-6.97759 10.2895,-13.46483 16.81169,-20.2565 31.18217,-39.44536 45.12939,-60.26113 3.12164,-4.65896 6.46027,-9.29137 7.41918,-10.29425 l 1.74346,-1.82341 1.19714,5.28579 c 2.26285,9.99131 3.03202,22.07905 2.6058,40.95111 -0.49185,21.77844 -1.84104,30.21956 -7.57708,47.40547 -11.80982,35.38369 -32.24147,62.08053 -67.46362,88.15077 -4.49286,3.32546 -5.34024,4.25709 -4.23181,4.65257 0.76228,0.27198 1.7322,0.40313 2.15538,0.29146 0.42318,-0.11168 2.50061,-0.62535 4.61652,-1.14148 24.34598,-5.93878 58.80896,-18.17809 83.75601,-29.74543 22.9437,-10.63842 25.39947,-11.70061 26.07975,-11.28017 2.44415,1.51057 -11.50446,32.01931 -21.6937,47.44899 -15.53773,23.52895 -36.66753,42.33068 -59.04894,52.54296 -18.72026,8.54176 -35.94501,12.12001 -63.71696,13.2365 -7.90919,0.31797 -13.06226,0.83003 -13.03494,1.29527 0.091,1.54931 24.45834,13.01049 46.08347,21.67536 6.75082,2.70495 19.38852,7.18229 28.08378,9.94965 23.03731,7.33187 23.4585,7.48991 23.73094,8.90453 0.18646,0.96823 -3.26783,3.03504 -14.26748,8.53664 -19.2759,9.64106 -33.99992,14.49017 -51.84376,17.07387 -7.37888,1.06842 -22.15214,1.39767 -29.13916,0.64941 z"
       id="path19" />
  </g>
</svg>
